<?xml version="1.0" encoding="UTF-8" standalone="no"?>
<svg
   xmlns:dc="http://purl.org/dc/elements/1.1/"
   xmlns:cc="http://creativecommons.org/ns#"
   xmlns:rdf="http://www.w3.org/1999/02/22-rdf-syntax-ns#"
   xmlns:svg="http://www.w3.org/2000/svg"
   xmlns="http://www.w3.org/2000/svg"
   height="512"
   width="512"
   id="svg4"
   version="1.1"
   viewBox="0 0 512 512"
   role="img"
   class="svg-inline--fa fa-file-image fa-w-12"
   data-icon="file-image"
   data-prefix="fas"
   focusable="false"
   aria-hidden="true">
  <metadata
     id="metadata10">
    <rdf:RDF>
      <cc:Work
         rdf:about="">
        <dc:format>image/svg+xml</dc:format>
        <dc:type
           rdf:resource="http://purl.org/dc/dcmitype/StillImage" />
        <dc:title></dc:title>
      </cc:Work>
    </rdf:RDF>
  </metadata>
  <defs
     id="defs8">
    <pattern
       id="EMFhbasepattern"
       patternUnits="userSpaceOnUse"
       width="6"
       height="6"
       x="0"
       y="0" />
  </defs>
  <g
     transform="translate(64)"
     id="g4494">
    <path
       d="M 384,121.941 V 128 H 256 V 0 h 6.059 c 6.36494,3.3279613e-5 12.46919,2.5284251 16.97,7.029 l 97.941,97.941 c 4.501,4.50101 7.02975,10.60562 7.03,16.971 z M 248,160 c -13.2,0 -24,-10.8 -24,-24 V 0 H 24 C 10.745,0 0,10.745 0,24 v 464 c 0,13.255 10.745,24 24,24 h 336 c 13.255,0 24,-10.745 24,-24 V 160 Z"
       id="path2"
       style="display:inline;fill:#1da1f2;fill-opacity:1" />
    <path
       id="path4498"
       d="m 79.45801,292.26684 c 72.23649,0 111.74564,-59.80318 111.74564,-111.69427 0,-1.69545 -0.0514,-3.3909 -0.10275,-5.08635 7.65522,-5.54875 14.33426,-12.43331 19.57475,-20.34541 -7.03869,3.13402 -14.59115,5.24048 -22.55464,6.21665 8.11762,-4.88084 14.33427,-12.58744 17.26278,-21.7326 -7.55247,4.46983 -15.97834,7.75798 -24.918,9.5048 -7.19282,-7.60384 -17.36553,-12.38193 -28.66853,-12.38193 -21.68122,0 -39.25226,17.57104 -39.25226,39.25227 0,3.08263 0.30827,6.06252 1.02755,8.93964 -32.67597,-1.64407 -61.60139,-17.26277 -80.97064,-40.99908 -3.33952,5.80563 -5.29186,12.53606 -5.29186,19.72888 0,13.61499 6.93593,25.63728 17.46828,32.67597 -6.47354,-0.20551 -12.48468,-1.95234 -17.77654,-4.88084 0,0.15413 0,0.30826 0,0.46239 0,19.0096 13.51223,34.93657 31.49428,38.53298 -3.28814,0.87342 -6.7818,1.33581 -10.37821,1.33581 -2.51749,0 -4.9836,-0.20551 -7.34696,-0.66791 4.9836,15.56733 19.472,26.92171 36.6834,27.22998 -13.46085,10.58372 -30.41536,16.85175 -48.80844,16.85175 -3.13402,0 -6.26803,-0.2055 -9.35067,-0.56515 17.36553,11.14888 38.01921,17.62242 60.2142,17.62242 z"
       style="display:inline;fill:#ffffff;fill-opacity:1;fill-rule:nonzero;stroke:none;stroke-width:0.64222109" />
    <path
       d="m 320.545,416 h -256 L 65.03,367.515 104.545,328 c 4.686,-4.686 11.799,-4.201 16.485,0.485 L 160.545,368 264.06,264.485 c 4.686,-4.686 12.284,-4.686 16.971,0 L 320.545,304 Z"
       id="path2-5"
       style="display:inline;fill:#ffffff;fill-opacity:1" />
  </g>
</svg>
